<svg width="72" height="73" viewBox="0 0 72 73" fill="none" xmlns="http://www.w3.org/2000/svg">
<g id="ic:baseline-auto-fix-high">
<path id="Vector" d="M22.4995 17.3L29.9995 21.5L25.7995 14L29.9995 6.5L22.4995 10.7L14.9995 6.5L19.1995 14L14.9995 21.5L22.4995 17.3ZM58.4995 46.7L50.9995 42.5L55.1995 50L50.9995 57.5L58.4995 53.3L65.9995 57.5L61.7995 50L65.9995 42.5L58.4995 46.7ZM65.9995 6.5L58.4995 10.7L50.9995 6.5L55.1995 14L50.9995 21.5L58.4995 17.3L65.9995 21.5L61.7995 14L65.9995 6.5ZM43.1095 22.37C42.832 22.0919 42.5023 21.8712 42.1394 21.7207C41.7765 21.5702 41.3874 21.4927 40.9945 21.4927C40.6016 21.4927 40.2126 21.5702 39.8496 21.7207C39.4867 21.8712 39.1571 22.0919 38.8795 22.37L3.86952 57.38C3.59141 57.6575 3.37077 57.9872 3.22022 58.3501C3.06968 58.713 2.99219 59.1021 2.99219 59.495C2.99219 59.8879 3.06968 60.277 3.22022 60.6399C3.37077 61.0028 3.59141 61.3325 3.86952 61.61L10.8895 68.63C12.0595 69.8 13.9495 69.8 15.1195 68.63L50.0995 33.65C50.3776 33.3725 50.5983 33.0428 50.7488 32.6799C50.8994 32.317 50.9768 31.9279 50.9768 31.535C50.9768 31.1421 50.8994 30.753 50.7488 30.3901C50.5983 30.0272 50.3776 29.6975 50.0995 29.42L43.1095 22.37ZM40.0195 38.84L33.6595 32.48L40.9795 25.16L47.3395 31.52L40.0195 38.84Z" fill="#F9BE2A"/>
</g>
</svg>
