<svg width="72" height="73" viewBox="0 0 72 73" fill="none" xmlns="http://www.w3.org/2000/svg">
<g id="vaadin:tools" clip-path="url(#clip0_48_409)">
<path id="Vector" d="M46.35 37.4L42.3 41.45L46.35 45.5L40.95 50.9L60.3 70.25C63 72.95 67.05 72.95 69.75 70.25C72.45 67.55 72.45 63.5 69.75 60.8L46.35 37.4ZM63.9 68C62.1 68 60.3 66.65 60.3 64.4C60.3 62.6 61.65 60.8 63.9 60.8C66.15 60.8 67.5 62.15 67.5 64.4C67.5 66.65 66.15 68 63.9 68ZM16.2 36.5L20.25 33.8L27 26.15L31.05 30.2L35.1 26.15L34.65 25.7C35.55 23.45 36 21.2 36 18.5C36 8.6 27.9 0.5 18 0.5C15.3 0.5 13.05 0.95 10.8 1.85L23.85 14.9L14.4 24.35L1.35 11.3C0.45 13.55 0 15.8 0 18.5C0 27.95 7.2 35.15 16.2 36.5Z" fill="#F9BE2A"/>
<path id="Vector_2" d="M35.9996 49.1002L40.0496 45.5002L35.9996 41.4502L61.6496 15.8002L67.0496 14.0002L71.9996 4.1002L68.8496 0.950195L58.4996 5.4502L56.2496 10.8502L31.0496 36.5002L26.9996 32.4502L23.3996 36.5002C23.3996 36.5002 26.9996 39.2002 22.9496 43.2502C20.6996 45.5002 17.0996 42.8002 10.3496 49.5502L0.899609 59.0002C0.899609 59.0002 -1.80039 63.5002 3.59961 68.9002C8.99961 74.3002 13.4996 71.6002 13.4996 71.6002L22.9496 62.1502C29.2496 55.8502 26.9996 51.8002 28.7996 50.0002C32.8496 45.9502 35.9996 49.1002 35.9996 49.1002ZM22.0496 47.3002L25.1996 50.4502L8.09961 67.5502L4.94961 64.4002L22.0496 47.3002Z" fill="#F9BE2A"/>
</g>
<defs>
<clipPath id="clip0_48_409">
<rect width="72" height="72" fill="white" transform="translate(0 0.5)"/>
</clipPath>
</defs>
</svg>
