<svg width="72" height="73" viewBox="0 0 72 73" fill="none" xmlns="http://www.w3.org/2000/svg">
<g id="material-symbols-light:sentiment-very-satisfied-rounded">
<path id="Vector" d="M36 51.155C38.486 51.155 40.779 50.579 42.879 49.427C44.979 48.275 46.699 46.716 48.039 44.75C48.305 44.258 48.311 43.76 48.057 43.256C47.803 42.752 47.384 42.5 46.8 42.5H25.2C24.616 42.5 24.196 42.752 23.94 43.256C23.688 43.76 23.696 44.258 23.964 44.75C25.304 46.72 27.034 48.28 29.154 49.43C31.274 50.58 33.556 51.155 36 51.155ZM26.7 28.961L29.025 31.289C29.283 31.545 29.587 31.683 29.937 31.703C30.287 31.723 30.61 31.585 30.906 31.289C31.202 30.993 31.347 30.679 31.341 30.347C31.335 30.017 31.19 29.704 30.906 29.408L28.398 26.879C27.92 26.395 27.353 26.153 26.697 26.153C26.041 26.153 25.471 26.395 24.987 26.879L22.461 29.408C22.201 29.666 22.062 29.97 22.044 30.32C22.026 30.67 22.17 30.998 22.476 31.304C22.75 31.578 23.055 31.718 23.391 31.724C23.729 31.73 24.046 31.59 24.342 31.304L26.7 28.961ZM45.3 28.961L47.661 31.304C47.919 31.55 48.223 31.683 48.573 31.703C48.923 31.723 49.246 31.585 49.542 31.289C49.838 30.993 49.986 30.679 49.986 30.347C49.986 30.015 49.838 29.702 49.542 29.408L47.013 26.879C46.537 26.395 45.971 26.153 45.315 26.153C44.659 26.153 44.089 26.395 43.605 26.879L41.076 29.405C40.83 29.665 40.698 29.97 40.68 30.32C40.66 30.668 40.798 30.99 41.094 31.286C41.39 31.582 41.704 31.731 42.036 31.733C42.366 31.733 42.679 31.584 42.975 31.286L45.3 28.961ZM36.009 63.5C32.277 63.5 28.767 62.792 25.479 61.376C22.193 59.958 19.334 58.034 16.902 55.604C14.47 53.174 12.545 50.318 11.127 47.036C9.709 43.754 9 40.245 9 36.509C9 32.773 9.709 29.263 11.127 25.979C12.543 22.693 14.464 19.834 16.89 17.402C19.316 14.97 22.173 13.045 25.461 11.627C28.749 10.209 32.259 9.5 35.991 9.5C39.723 9.5 43.233 10.209 46.521 11.627C49.807 13.043 52.666 14.965 55.098 17.393C57.53 19.821 59.455 22.678 60.873 25.964C62.291 29.25 63 32.759 63 36.491C63 40.223 62.292 43.733 60.876 47.021C59.46 50.309 57.536 53.168 55.104 55.598C52.672 58.028 49.816 59.953 46.536 61.373C43.256 62.793 39.747 63.502 36.009 63.5Z" fill="#252529"/>
</g>
</svg>
