<svg width="592" height="400" viewBox="0 0 592 400" fill="none" xmlns="http://www.w3.org/2000/svg">
<path fill-rule="evenodd" clip-rule="evenodd" d="M244.224 126.286C240.979 126.286 238 127.369 235.401 129.323C236.885 128.739 238.469 128.422 240.13 128.422C251.708 128.422 262.693 143.567 264.667 162.25C266.641 180.932 258.854 196.078 247.276 196.078C242.865 196.078 238.542 193.88 234.766 190.119C239.635 196.744 245.792 200.833 252.104 200.833C264.865 200.833 273.443 184.146 271.271 163.562C269.094 142.974 256.984 126.286 244.224 126.286Z" fill="#F9BE2A" fill-opacity="0.35"/>
<path fill-rule="evenodd" clip-rule="evenodd" d="M251.578 156.896C251.146 155.615 250.594 154.391 249.917 153.282C249.427 152.479 248.823 151.677 248.125 151.011L254.495 133.084L250.604 152.552L261.339 143.578L251.578 156.896ZM249.526 174.381C250.589 173.479 251.339 172.131 251.823 170.802C252.042 170.203 252.224 169.578 252.365 168.933L264.005 182.302L252.036 173.328L258.609 192.797L249.526 174.381ZM252.703 166.813C252.854 165.313 252.839 163.787 252.708 162.334C252.609 161.261 252.438 160.157 252.188 159.068L265.052 155.521L253.828 162.943L266.068 170.36L252.703 166.813ZM246.682 149.933C246.005 149.558 245.271 149.334 244.484 149.334C244.13 149.334 243.786 149.381 243.448 149.474C242.948 149.61 242.49 149.839 242.078 150.131L238.536 128.136L244.25 148.25L247.193 128.136L246.682 149.933ZM240.891 151.292C240.266 152.084 239.792 153.032 239.453 153.969C239.047 155.078 238.781 156.271 238.625 157.49L226.51 143.578L238.484 152.552L231.911 133.084L240.891 151.292ZM238.484 159.25C238.438 160.328 238.474 161.401 238.568 162.438C238.688 163.787 238.932 165.188 239.297 166.547L225.469 170.36L236.693 162.943L224.453 155.521L238.484 159.25ZM239.714 167.933C240.146 169.193 240.688 170.401 241.359 171.495C241.786 172.193 242.297 172.886 242.88 173.495L236.026 192.797L239.917 173.334L229.177 182.302L239.714 167.933ZM243.87 174.375C244.74 175.021 245.719 175.438 246.792 175.438C247.141 175.438 247.49 175.396 247.828 175.302C248.005 175.256 248.177 175.193 248.344 175.125L251.984 197.745L246.271 177.631L243.328 197.745L243.87 174.375Z" fill="#F9BE2A" fill-opacity="0.35"/>
<path fill-rule="evenodd" clip-rule="evenodd" d="M243.329 151.984C245.902 151.984 248.376 156.682 248.85 162.474C249.323 168.266 247.62 172.958 245.047 172.958C242.469 172.958 240.001 168.266 239.521 162.474C239.047 156.682 240.751 151.984 243.329 151.984ZM244.068 150.219C247.62 150.219 251.001 155.661 251.631 162.385C252.256 169.109 249.891 174.557 246.344 174.557C242.797 174.557 239.407 169.109 238.782 162.385C238.157 155.661 240.521 150.219 244.068 150.219Z" fill="#F9BE2A" fill-opacity="0.35"/>
<path fill-rule="evenodd" clip-rule="evenodd" d="M577.489 263.229C578.656 259.719 579.525 256.073 580.109 252.375C582.729 235.786 579.958 217.854 574.109 201.625C569.031 187.536 561.249 173.677 551.166 162.062C558.874 172.292 564.952 183.818 569.166 195.51C575.015 211.74 577.786 229.672 575.166 246.26C574.577 249.958 573.718 253.604 572.546 257.115C568.609 256.891 562.525 256.75 556.645 256.245C562.973 259.141 570.041 261.417 577.489 263.229Z" fill="#F9BE2A" fill-opacity="0.35"/>
<path fill-rule="evenodd" clip-rule="evenodd" d="M545.506 277.86C584.516 287.625 646.589 287.865 673.266 270.37C636.646 282.308 577.344 279.151 553.079 268.792C550.85 272.063 548.324 275.12 545.506 277.86Z" fill="#F9BE2A" fill-opacity="0.35"/>
<path fill-rule="evenodd" clip-rule="evenodd" d="M239.703 123.088C253.26 121.755 287.026 132.255 308.891 134.922C343.161 139.094 379.276 143.12 405.583 138.37C463.49 127.911 504.578 109.802 542.469 153.26C513.177 110.729 470.839 117.115 404.969 129.542C377.859 134.651 342.161 132.161 309.87 129.521C284.062 127.406 248.453 117.88 239.703 123.088Z" fill="#F9BE2A" fill-opacity="0.35"/>
<path fill-rule="evenodd" clip-rule="evenodd" d="M549.942 119.058C475.484 72.589 402.291 50.938 268.291 119.183C271.275 119.573 278.614 119.969 281.604 120.365C422.572 48.3026 496.166 95.7244 549.942 119.058Z" fill="#F9BE2A" fill-opacity="0.35"/>
<path fill-rule="evenodd" clip-rule="evenodd" d="M442.896 130.083L444.558 127.14C441.558 126.265 443.224 122.395 439.646 121.416C431.328 119.145 426.078 120.093 418.948 116.947C413.891 114.713 410.823 109.796 413.974 107.427C425.276 98.911 437.386 109.776 445.985 119.859C438.49 104.062 422.636 97.5152 410.688 105.151C404.375 109.182 406.011 115.218 412.99 118.296C420.646 121.677 427.875 121.604 436.808 124.046C441.365 125.291 436.443 130.63 442.896 130.083Z" fill="#F9BE2A" fill-opacity="0.35"/>
<path fill-rule="evenodd" clip-rule="evenodd" d="M502.203 141.469C496.01 141.469 490.292 143.437 485.26 146.974C488.115 145.906 491.141 145.344 494.302 145.344C516.37 145.344 536.667 172.781 539.635 206.63C542.609 240.474 527.125 267.911 505.062 267.911C496.656 267.911 488.5 263.927 481.469 257.125C490.469 269.125 502.026 276.531 514.057 276.531C538.375 276.531 555.432 246.297 552.161 209C548.885 171.708 526.521 141.469 502.203 141.469Z" fill="#F9BE2A" fill-opacity="0.35"/>
<path fill-rule="evenodd" clip-rule="evenodd" d="M492.969 129.354C463.683 129.354 443.131 162.084 447.079 202.443C447.548 207.276 448.35 212.006 449.449 216.573C420.376 210.495 387.006 199.058 291.178 193.558C348.506 201.787 405.053 212.729 458.704 233.776C456.037 226.042 454.204 217.698 453.391 209C449.615 168.636 469.287 135.917 497.334 135.917C512.068 135.917 526.183 144.948 536.808 159.381C525.87 141.183 509.829 129.354 492.969 129.354Z" fill="#F9BE2A" fill-opacity="0.35"/>
<path fill-rule="evenodd" clip-rule="evenodd" d="M324.182 124.385C363.958 82.1613 403.062 62.4894 474.645 124.495C473.051 124.854 469.13 125.213 467.536 125.573C392.223 60.0935 352.911 103.182 324.182 124.385Z" fill="#F9BE2A" fill-opacity="0.35"/>
<path fill-rule="evenodd" clip-rule="evenodd" d="M545.589 119.385C517.136 116.318 491.344 115.432 469.006 119.724L470.449 124.557C496.36 118.276 523.933 119.854 545.589 119.385Z" fill="#F9BE2A" fill-opacity="0.35"/>
<path fill-rule="evenodd" clip-rule="evenodd" d="M623.391 224.067C597.328 221.291 594.583 217.328 582.484 199.51C578.568 193.755 576.115 189.343 574.849 186.046C575.661 188.156 576.958 190.713 578.807 193.791C583.734 194.651 590 196.63 596.427 198.89C598.005 199.442 599.557 200.01 601.078 200.583C601.995 202.505 603.896 204.375 606.463 205.645C609.557 207.182 612.833 207.463 615.177 206.619C615.547 206.802 615.922 206.989 616.297 207.171C616.76 208.619 618.078 209.994 619.969 210.791C621.292 211.359 622.682 211.546 623.927 211.406C624.802 211.937 625.656 212.484 626.49 213.036C632.948 217.323 638.182 221.302 641.641 224.718C637.766 225.166 631.818 224.963 623.391 224.067ZM642.943 224.531C640.437 220.448 635.01 215.073 627.693 209.015C628.63 206.88 627.073 204.208 624.099 202.942C622.349 202.198 620.484 202.109 618.995 202.573C618.786 202.442 618.583 202.307 618.375 202.171C618.234 199.557 615.948 196.63 612.375 194.854C609.292 193.323 606.016 193.041 603.677 193.88C601.922 193.005 600.125 192.145 598.281 191.296C588.344 186.698 578.766 182.88 574.141 183.864C571.338 172.984 585.656 178.192 600.812 185.198C612.036 190.38 621.693 195.953 629.177 202.062C644.948 214.927 653.177 222.698 642.943 224.531Z" fill="#F9BE2A" fill-opacity="0.35"/>
<mask id="mask0_80_4955" style="mask-type:luminance" maskUnits="userSpaceOnUse" x="214" y="199" width="408" height="162">
<path d="M214.494 199.198H621.02V360.297H214.494V199.198Z" fill="white"/>
</mask>
<g mask="url(#mask0_80_4955)">
<path fill-rule="evenodd" clip-rule="evenodd" d="M620.833 359.204C610.854 348.032 596.458 336.563 582.598 327.98C590.63 338.98 598.781 350.61 600.348 360.318C556.343 292.464 406.796 212.193 214.494 199.339C229.072 198.901 244.744 199.61 260.343 201.094L259.76 201.355L258.63 201.75L257.468 202.058L256.281 202.271L255.062 202.391L253.812 202.417L276.057 202.844C276.895 202.948 277.729 203.058 278.562 203.167C368.968 215.089 537.63 267.23 608.749 329.99C597.932 322.214 582.765 314 568.38 307.672C587.598 324 606.114 338.099 620.833 359.204Z" fill="#F9BE2A" fill-opacity="0.35"/>
</g>
<path fill-rule="evenodd" clip-rule="evenodd" d="M286.786 147.323C302.714 167.177 293.833 161.135 336.88 179.609C298.005 166.682 297.974 167.39 281.125 147.036C292.172 135.948 293.062 138.328 317.036 141.693C295.625 141.489 295.682 136.927 286.786 147.323Z" fill="#F9BE2A" fill-opacity="0.35"/>
<path fill-rule="evenodd" clip-rule="evenodd" d="M295.99 149.099C309.167 168.281 302.969 163.646 338.605 180.312C306.423 169.026 305.251 168.703 291.303 149.057C300.443 137.5 301.183 139.843 321.032 142.203C303.303 142.896 303.355 138.333 295.99 149.099Z" fill="#F9BE2A" fill-opacity="0.35"/>
<path fill-rule="evenodd" clip-rule="evenodd" d="M353.626 151.792C347.438 151.245 340.6 147.542 336.178 145.234C342.558 145.802 346.089 145.979 355.324 146.938C355.839 146.99 355.334 151.943 353.626 151.792Z" fill="#F9BE2A" fill-opacity="0.35"/>
<path fill-rule="evenodd" clip-rule="evenodd" d="M514.916 196.927C514.145 194.604 513.15 192.38 511.9 190.37C511.005 188.922 509.89 187.479 508.588 186.271L521.489 153.786L513.244 189.057L534.088 172.797L514.916 196.927ZM510.275 228.604C512.333 226.974 513.817 224.531 514.796 222.12C515.239 221.031 515.604 219.896 515.906 218.729L537.531 242.958L515.093 226.698L526.796 261.969L510.275 228.604ZM516.64 214.885C516.994 212.172 517.036 209.406 516.838 206.776C516.697 204.833 516.416 202.839 515.984 200.859L540.645 194.432L518.952 207.875L541.968 221.323L516.64 214.885ZM505.89 184.307C504.609 183.63 503.218 183.229 501.713 183.229C501.046 183.229 500.385 183.312 499.739 183.474C498.775 183.724 497.895 184.141 497.093 184.672L491.275 144.828L501.312 181.26L507.775 144.828L505.89 184.307ZM494.781 186.771C493.562 188.208 492.619 189.927 491.926 191.625C491.109 193.635 490.551 195.792 490.208 198L467.708 172.802L490.15 189.057L478.442 153.786L494.781 186.771ZM489.859 201.193C489.729 203.141 489.744 205.089 489.885 206.964C490.067 209.417 490.463 211.943 491.104 214.411L464.593 221.323L486.286 207.875L463.275 194.432L489.859 201.193ZM491.843 216.922C492.609 219.203 493.593 221.396 494.822 223.375C495.604 224.635 496.551 225.896 497.64 226.995L483.755 261.969L491.999 226.698L471.15 242.958L491.843 216.922ZM499.489 228.594C501.109 229.76 502.963 230.516 505.01 230.516C505.676 230.516 506.338 230.438 506.984 230.271C507.327 230.182 507.661 230.073 507.979 229.943L513.963 270.927L503.926 234.495L497.468 270.927L499.489 228.594Z" fill="#F9BE2A" fill-opacity="0.35"/>
<path fill-rule="evenodd" clip-rule="evenodd" d="M499.401 188.032C504.307 188.032 508.817 196.537 509.484 207.032C510.14 217.521 506.698 226.026 501.791 226.026C496.88 226.026 492.37 217.521 491.708 207.032C491.047 196.537 494.489 188.032 499.401 188.032ZM500.896 184.823C507.651 184.823 513.87 194.698 514.781 206.87C515.692 219.052 510.948 228.922 504.187 228.922C497.427 228.922 491.208 219.052 490.297 206.87C489.39 194.698 494.13 184.823 500.896 184.823Z" fill="#F9BE2A" fill-opacity="0.35"/>
</svg>
