<svg width="603" height="331" viewBox="0 0 603 331" fill="none" xmlns="http://www.w3.org/2000/svg">
<path d="M15.2821 215.452C16.5712 209.022 18.9726 203.039 22.4907 197.506C26.0605 191.86 30.4667 186.968 35.7222 182.835C41.0381 178.645 46.9058 175.46 53.3168 173.28C54.912 172.741 56.546 172.323 58.1671 171.853C59.8097 171.487 61.4652 171.172 63.1208 170.836C64.7936 170.616 66.4707 170.439 68.1435 170.245L70.6699 170.108C71.515 170.073 72.36 170.077 73.2007 170.064C76.5851 170.099 79.9436 170.401 83.2806 170.97C86.609 171.556 89.864 172.413 93.0544 173.534C99.4395 175.797 105.264 179.055 110.524 183.317C115.728 187.52 120.074 192.467 123.562 198.169C127.002 203.755 129.313 209.776 130.494 216.228C129.171 213.349 127.675 210.56 126.006 207.862C124.363 205.22 122.544 202.699 120.548 200.307C116.616 195.579 112.102 191.498 106.997 188.063C104.514 186.382 101.919 184.895 99.211 183.598C96.5078 182.3 93.7227 181.206 90.8557 180.318C87.9886 179.43 85.0698 178.758 82.1036 178.296C79.1374 177.84 76.154 177.598 73.1533 177.577C70.1526 177.559 67.1648 177.758 64.1943 178.176C61.2238 178.598 58.2964 179.232 55.4207 180.081C52.5408 180.93 49.7427 181.986 47.0179 183.248C44.2975 184.511 41.6805 185.964 39.1756 187.61C34.0278 190.98 29.4578 195.002 25.4655 199.673C21.3697 204.483 17.9767 209.741 15.2821 215.452Z" fill="#5B5B5B"/>
<path d="M335.632 215.844C336.891 209.409 339.266 203.418 342.758 197.867C346.298 192.204 350.687 187.291 355.917 183.136C361.22 178.921 367.07 175.71 373.472 173.499C375.063 172.952 376.697 172.529 378.314 172.051C379.957 171.676 381.612 171.353 383.263 171.008C384.936 170.784 386.609 170.598 388.286 170.396L390.808 170.245C391.653 170.206 392.498 170.211 393.339 170.193C396.723 170.211 400.082 170.499 403.423 171.051C406.752 171.624 410.015 172.465 413.206 173.572C419.604 175.805 425.441 179.042 430.723 183.274C435.948 187.454 440.315 192.385 443.829 198.065C447.296 203.638 449.632 209.65 450.844 216.098C449.507 213.223 447.998 210.439 446.317 207.75C444.661 205.116 442.833 202.604 440.824 200.22C436.875 195.514 432.339 191.454 427.222 188.041C424.726 186.373 422.126 184.894 419.414 183.61C416.702 182.321 413.913 181.244 411.041 180.369C408.17 179.494 405.251 178.83 402.285 178.386C399.315 177.943 396.331 177.714 393.33 177.71C390.33 177.701 387.342 177.917 384.371 178.348C381.401 178.783 378.482 179.429 375.607 180.291C372.731 181.153 369.937 182.222 367.221 183.498C364.505 184.769 361.896 186.239 359.396 187.894C354.265 191.286 349.713 195.329 345.742 200.022C341.668 204.849 338.296 210.125 335.632 215.844Z" fill="#5B5B5B"/>
<path d="M288.303 172.43C269.501 171.728 250.716 170.616 231.945 169.086C212.781 167.508 193.634 165.453 174.574 162.457L167.426 161.315L160.295 160.013L156.729 159.358L153.177 158.621C150.81 158.113 148.43 157.669 146.072 157.113C136.531 155.027 127.153 152.381 117.936 149.161C127.054 152.829 136.362 155.936 145.856 158.492C148.206 159.164 150.573 159.729 152.931 160.35L156.47 161.263L160.023 162.099L167.132 163.742L174.259 165.237C193.276 169.172 212.41 172.172 231.574 174.689C234.394 175.059 237.218 175.417 240.042 175.766C248 175.512 255.963 175.098 263.926 174.529C272.053 173.956 280.176 173.232 288.303 172.43Z" fill="#F9BE2A"/>
<mask id="mask0_80_4937" style="mask-type:luminance" maskUnits="userSpaceOnUse" x="-14" y="114" width="489" height="81">
<path d="M474.695 114.54H-13.6936V194.187H474.695V114.54Z" fill="white"/>
</mask>
<g mask="url(#mask0_80_4937)">
<path d="M462.667 182.27C458.209 179.046 453.479 176.283 448.482 173.978C438.506 169.362 427.736 166.509 416.846 165.004C411.4 164.237 405.912 163.793 400.424 163.556C394.935 163.324 389.447 163.289 383.967 163.388C373.012 163.586 362.1 164.198 351.197 164.966C329.394 166.509 307.687 168.797 286.005 170.685C281.513 171.073 277.025 171.439 272.536 171.792C266.186 172.284 259.84 172.728 253.493 173.077C247.268 173.417 241.046 173.672 234.829 173.835C230.221 173.952 225.612 174.003 221.007 173.995C210.19 173.965 199.395 173.525 188.651 172.594C168.905 170.887 149.676 167.388 131.146 159.6C115.371 152.971 99.8629 146.713 82.915 143.813C82.3976 143.726 81.9406 143.507 81.5526 143.158C81.1602 142.808 80.8886 142.382 80.7378 141.882C80.5912 141.378 80.5869 140.873 80.7291 140.369C80.8671 139.86 81.1301 139.429 81.5181 139.076C86.7047 137.624 91.8739 136.154 97.0475 134.74C103.941 132.822 110.848 131.086 117.798 129.426C124.748 127.767 131.719 126.293 138.717 124.944C145.714 123.621 152.75 122.53 159.808 121.617C166.865 120.759 173.949 120.13 181.05 119.794C182.822 119.729 184.598 119.694 186.374 119.643C187.258 119.626 188.146 119.587 189.034 119.587L191.699 119.604L194.359 119.617C195.247 119.617 196.135 119.621 197.023 119.673L202.339 119.888C203.232 119.906 204.111 119.996 204.995 120.061L207.651 120.268L210.307 120.47L212.949 120.776C214.708 120.992 216.476 121.164 218.231 121.418L223.491 122.242C230.505 123.448 237.425 125.047 244.254 127.039C251.079 129.064 257.796 131.469 264.401 134.171C271.019 136.848 277.494 139.891 283.849 143.17C296.576 149.816 308.812 157.26 320.556 165.513C309.191 156.665 297.249 148.679 284.729 141.554C278.456 138.016 272.045 134.689 265.449 131.749C258.844 128.793 252.109 126.168 245.241 123.884C238.339 121.638 231.333 119.789 224.219 118.337L218.865 117.333C217.075 117.031 215.273 116.807 213.48 116.54L210.781 116.156L205.366 115.596C204.46 115.505 203.559 115.389 202.654 115.346C195.411 114.755 188.146 114.613 180.886 114.717C173.63 114.898 166.391 115.372 159.174 116.083C151.974 116.867 144.8 117.854 137.656 119.048C130.529 120.281 123.424 121.634 116.375 123.203C102.264 126.271 88.2998 130.047 74.4734 133.745C71.0114 134.676 67.5493 135.551 64.0873 136.451L58.8965 137.731C57.1633 138.167 55.4302 138.567 53.697 138.96C46.7687 140.585 39.8145 141.955 32.8344 143.071L27.6005 143.856L22.3492 144.463C20.6031 144.696 18.8484 144.795 17.098 144.933L14.4681 145.136L13.1531 145.235L11.8425 145.274L6.58264 145.45C5.70746 145.498 4.83224 145.45 3.95703 145.446L1.33145 145.407L-1.28986 145.377C-2.16507 145.356 -3.03595 145.274 -3.90683 145.226L-9.14081 144.903C-9.58487 144.877 -10.0203 144.925 -10.4428 145.041C-10.8697 145.157 -11.2663 145.343 -11.6328 145.593C-11.9949 145.843 -12.3097 146.144 -12.5726 146.498C-12.8399 146.855 -13.0383 147.243 -13.1719 147.661C-13.3056 148.084 -13.3659 148.515 -13.353 148.959C-13.3401 149.398 -13.2581 149.825 -13.1029 150.239C-12.9477 150.657 -12.7321 151.032 -12.4476 151.372C-12.1674 151.713 -11.8397 152.001 -11.4603 152.23L-11.4388 152.243C-10.5894 152.764 -9.81339 153.376 -9.10632 154.083C-8.4079 154.837 -7.79999 155.661 -7.28262 156.553C-6.7825 157.471 -6.38586 158.432 -6.09268 159.436C-5.82538 160.436 -5.6702 161.457 -5.63568 162.492C-5.61844 163.5 -5.72623 164.492 -5.95905 165.47C-6.00647 165.711 -6.10562 165.935 -6.17029 166.172L-6.27808 166.521L-6.43759 166.935C-6.6618 167.521 -6.94635 168.202 -7.22656 169.03C-7.57147 170.021 -7.77411 171.038 -7.84311 172.086C-7.87759 172.767 -7.82587 173.439 -7.6922 174.107C-7.54562 174.831 -7.28693 175.521 -6.92911 176.167C-6.74802 176.495 -6.54968 176.809 -6.3255 177.102C-6.08838 177.408 -5.82971 177.693 -5.55807 177.964C-5.26923 178.223 -4.97174 178.464 -4.66132 178.693C-4.34659 178.887 -4.02756 179.076 -3.69989 179.249C-2.56601 179.774 -1.37177 180.055 -0.117188 180.085C1.76257 180.115 3.58627 179.813 5.35825 179.175C5.75919 179.033 6.16016 178.887 6.55246 178.723L6.83704 178.602L7.5484 178.292L9.44537 177.46C11.9632 176.339 14.4595 175.206 16.9428 174.055C21.9095 171.762 26.8201 169.452 31.7437 167.267C36.6715 165.082 41.6123 163.043 46.6092 161.255C49.1097 160.393 51.6233 159.548 54.1497 158.837C56.6718 158.117 59.2198 157.484 61.7722 156.954C66.8639 155.889 72.0073 155.329 77.2068 155.273C79.7677 155.251 82.3243 155.389 84.868 155.686C87.416 156.001 89.9338 156.462 92.4301 157.074C102.626 159.535 112.637 163.63 123.079 167.237C133.59 170.81 144.3 173.637 155.208 175.71C166.072 177.766 177.014 179.21 188.043 180.042C199.032 180.899 210.044 181.179 221.033 181.085C232.018 180.985 242.987 180.468 253.911 179.684C262.551 179.063 271.165 178.292 279.762 177.421C282.039 177.193 284.315 176.956 286.587 176.71C297.715 175.533 308.812 174.236 319.905 172.965C330.464 171.758 341.018 170.577 351.581 169.556C362.406 168.513 373.254 167.629 384.088 167.077C389.507 166.806 394.923 166.668 400.333 166.733C405.744 166.802 411.15 167.065 416.518 167.651C427.258 168.758 437.902 171.124 447.892 175.301C452.91 177.387 457.687 179.917 462.227 182.895C466.771 185.92 470.927 189.403 474.695 193.346C471.113 189.192 467.099 185.502 462.667 182.27Z" fill="#5B5B5B"/>
</g>
</svg>
