<svg width="269" height="156" viewBox="0 0 269 156" fill="none" xmlns="http://www.w3.org/2000/svg">
<path fill-rule="evenodd" clip-rule="evenodd" d="M152.614 152.203C172.887 152.203 177.305 115.615 174.707 102.052C172.367 88.4931 163.529 74.9309 156.253 74.6776C146.117 74.1649 137.539 84.3976 134.681 97.4472C133.122 102.821 132.083 108.962 132.083 115.615C132.083 123.546 133.382 130.709 135.723 136.596H131.042C133.382 136.083 132.344 131.991 126.885 132.244L55.674 131.478L56.1917 132.244L128.704 133.269C127.923 134.548 127.145 135.061 125.846 134.804C87.6401 133.269 65.8076 133.013 60.0914 134.292C54.1148 134.548 50.9932 134.548 50.2151 134.292C49.6943 133.526 49.9547 132.757 51.5139 132.5C49.6943 131.991 47.8747 132.5 46.5758 133.779C46.5758 134.292 46.8362 134.548 47.0966 135.061C43.7177 146.319 34.1018 150.668 17.9886 148.364L16.4294 148.107C3.43457 146.063 0.573334 126.104 0.0556946 115.871C-1.24631 81.0742 20.5863 61.628 34.6195 100.008L39.818 119.197C37.7411 109.218 36.6996 103.078 36.6996 100.774C37.2203 101.796 38.2588 100.261 39.3004 101.796C39.818 102.565 40.5992 101.796 40.5992 100.517C40.5992 98.2162 42.1585 96.9375 42.4189 98.9822C42.9365 103.844 45.5374 103.844 45.7978 106.148C45.7978 106.148 47.6174 106.148 50.7359 105.892L50.2151 97.7035C48.6559 97.7035 47.357 97.1908 46.055 95.6557H41.8981L41.1169 94.6334L46.3154 94.8898C47.357 96.4248 48.3954 96.9375 49.6943 96.4248C48.9163 92.842 49.1767 87.4677 49.9547 80.3051C45.5374 80.8178 42.4189 81.5838 41.6377 82.3529C40.3388 83.3752 39.3004 87.4677 38.2588 94.8898C38.2588 94.8898 38.7796 90.5409 39.5576 81.8402C39.818 80.0488 40.8596 78.7701 43.4573 78.5137C45.5374 78.001 47.8747 77.7477 50.4755 77.4913C50.9932 74.6776 51.5139 71.3511 52.0348 68.0246L50.9932 77.235C68.4084 74.6776 92.5783 73.1394 123.246 73.3958C124.287 70.0693 125.326 66.2332 126.885 61.628C125.846 64.6981 124.805 68.5342 123.506 73.3958H125.326C129.483 73.3958 131.042 77.7477 130.003 84.1443C128.965 79.536 126.624 76.9786 122.725 76.4659C121.686 80.8178 120.648 85.6794 119.349 91.0506C124.287 92.076 122.985 101.03 127.145 106.148C121.426 102.821 123.766 95.1461 119.089 92.5856C118.307 94.377 117.79 98.7259 117.269 102.309C120.387 103.334 122.467 104.869 123.766 106.658L44.4958 109.474L46.055 110.753L129.743 108.962C128.965 84.1443 144.037 59.3239 168.727 77.235C173.926 81.8402 177.565 86.4454 180.163 90.7942C181.722 93.3547 184.583 94.8898 186.66 93.0983C191.598 88.4931 196.019 84.6539 200.176 82.0965C184.323 58.0452 154.173 54.4623 134.16 77.4913C149.756 51.1358 186.142 53.6963 203.034 80.8178C209.271 76.9786 215.251 75.4436 220.967 76.7223C228.506 78.5137 233.444 80.5615 235.781 81.3275L232.402 92.076H233.701L237.601 81.3275C241.24 81.3275 178.086 79.536 378.466 82.0965L382.623 83.6316H370.41C372.747 87.4677 375.608 94.377 379.505 104.1H385.224L385.481 107.427C389.381 107.683 391.979 108.449 392.76 109.731C392.76 111.775 390.162 112.801 384.964 112.545L301.276 113.311C296.338 113.311 292.698 114.589 290.621 116.381L281.263 125.338C279.443 127.129 276.325 128.152 271.387 128.152L218.109 130.453C214.73 130.453 210.83 130.709 208.753 128.152L197.835 113.567L196.019 113.311L207.712 128.918C209.792 131.478 213.431 132.244 218.629 131.991L272.168 129.43C277.627 128.664 281.523 127.895 283.603 125.338L291.92 116.381C294 114.336 297.636 114.08 301.015 114.08H387.044C387.822 114.589 388.343 115.358 388.343 116.124C381.064 115.102 377.425 119.197 377.425 122.777C377.425 126.873 382.884 128.664 383.144 126.104C383.404 123.546 382.884 122.268 382.884 122.268C384.703 125.847 387.044 126.873 389.902 125.847C388.343 130.453 386.002 132.5 382.884 132.757C380.025 139.41 368.85 139.153 362.093 141.201C356.373 148.107 350.657 151.947 345.719 152.969C333.242 157.321 319.469 157.064 307.252 151.69C303.616 148.876 300.755 146.063 298.938 143.246L219.668 145.037L198.096 145.55C193.939 151.69 178.864 153.994 152.614 152.203ZM380.804 85.6794H391.979C393.798 89.5155 393.541 92.3293 391.201 94.1207L391.461 95.9121L385.224 96.1685C384.182 92.5856 382.623 89.0059 380.804 85.6794ZM129.743 120.22L130.524 117.916L46.055 118.941L48.6559 120.733L129.743 120.22ZM114.15 116.637L131.302 115.871V109.984L116.488 110.497C115.97 113.823 115.189 116.127 114.15 116.637ZM110.251 116.893C113.109 116.381 114.929 114.336 115.449 110.497L109.99 110.753L110.251 116.893ZM51.7744 105.635C67.3668 104.613 110.251 100.774 113.369 101.03C114.929 101.286 116.227 101.543 117.529 102.052C118.047 98.9822 118.568 94.6334 119.089 92.076C105.573 88.2368 65.2899 95.1461 51.5139 97.7035L51.7744 105.635ZM300.237 116.381C293.479 116.893 289.319 119.451 288.281 124.825C288.021 126.873 289.062 128.408 290.361 129.174H297.636C293.479 124.825 295.299 117.662 299.716 117.406C297.376 118.685 296.077 120.733 296.338 123.29C297.897 126.616 299.977 128.152 302.835 127.639C302.314 128.408 301.276 128.918 300.237 129.174C302.057 129.687 304.134 128.918 305.175 126.104C306.474 122.011 304.655 117.662 300.237 116.381ZM309.853 104.613L360.533 105.379C360.794 104.869 360.794 104.356 360.533 103.587C358.974 96.4248 358.453 92.842 358.453 92.842C358.193 90.7942 357.154 90.0282 355.595 90.0282C323.108 89.7719 306.735 89.2591 306.735 89.2591C305.953 89.7719 306.214 90.7942 306.474 92.5856C307.513 100.261 308.294 104.356 309.853 104.613ZM302.314 110.497L365.211 109.984C363.131 108.705 359.492 107.939 354.296 107.683C352.737 106.914 346.24 106.658 335.322 106.914C334.544 106.914 333.763 106.914 333.242 107.427L332.464 107.939H303.095C302.314 108.193 302.057 108.962 302.314 110.497ZM213.17 102.821C216.549 103.844 223.307 104.1 233.961 103.587L234.222 102.309L240.719 102.565L240.198 101.796H208.753V102.821H213.17ZM213.952 100.774L259.433 100.517L262.552 99.2386H275.547C276.067 100.261 276.845 100.774 278.405 100.774L289.319 99.2386C289.58 97.4472 287.76 96.6812 283.603 96.4248L184.583 97.1908L185.361 98.7259H202.773C206.673 100.261 210.312 101.03 213.952 100.774ZM119.349 90.5409C119.349 90.5409 120.387 85.6794 123.246 76.4659C122.725 76.4659 121.947 76.4659 121.426 76.4659C111.032 76.9786 70.4884 78.001 51.7744 80.0488C51.5139 84.1443 51.5139 89.0059 51.2536 94.377C51.7744 95.9121 53.0732 96.4248 55.4136 95.6557C65.0295 93.3547 111.81 85.423 119.349 90.5409ZM15.9085 145.037C32.5426 145.55 37.2203 88.2368 18.5063 82.8625C-0.465118 76.9786 -4.36478 144.528 15.9085 145.037Z" fill="#F9BE2A" fill-opacity="0.31"/>
<path fill-rule="evenodd" clip-rule="evenodd" d="M351.434 52.6726C329.604 51.1375 308.553 50.3715 288.28 51.1375C285.939 51.1375 287.759 58.0468 291.658 59.5819C296.597 52.6726 341.818 53.698 349.357 57.5341C349.874 58.3032 349.874 59.3255 349.874 61.117H352.215C352.736 57.7905 353.514 55.7427 354.295 54.7204C354.552 53.698 353.514 52.9289 351.434 52.6726ZM176.525 9.43444C244.618 5.08252 275.545 17.8757 302.313 28.3679C286.981 29.3903 226.164 33.4827 218.368 31.1817L178.342 11.9919C176.525 11.4791 176.004 10.7131 176.525 9.43444ZM1.09274 78.7717C8.37131 62.9084 57.4891 56.7681 73.3451 54.9767L69.9662 56.5118C54.8914 58.3032 9.67017 65.2094 1.87393 79.0281L1.09274 94.3787V78.7717ZM250.594 4.5729C208.752 0.990052 168.465 -0.545012 130.262 3.2911C122.984 4.06018 117.007 6.61759 112.329 9.68771C119.348 4.31654 127.144 1.75604 135.721 1.24641C176.525 -1.05773 214.728 -0.288652 250.594 4.5729ZM307.511 27.0861C280.223 16.0843 256.831 8.66537 236.821 5.08252C258.911 7.1303 282.563 14.5493 307.511 27.0861ZM258.911 46.0227C250.073 44.7409 244.618 42.6962 242.798 39.3697C247.215 37.5783 257.873 37.0656 273.986 37.5783L271.646 39.8793C260.21 39.8793 253.195 40.6484 250.855 42.1835C256.831 40.9048 263.328 40.6484 270.086 40.9048L267.749 42.9495C263.068 42.6962 259.172 43.2058 255.793 44.2313H265.409C263.328 44.9973 261.252 45.51 258.911 46.0227ZM192.118 36.0432C193.677 48.0674 103.492 51.9066 85.2983 52.6726H82.7006C81.9194 53.698 80.881 54.2076 79.8425 53.9544C78.8009 55.4894 81.9194 54.9767 80.6206 57.2778C80.1029 58.0468 75.9428 57.7905 75.422 53.9544L70.487 51.9066C68.6674 50.8811 67.8862 49.6024 67.8862 47.5578C71.2651 42.4398 75.6824 40.6484 81.6622 42.1835C75.422 42.4398 71.5255 44.4845 69.7058 48.3237C73.6055 44.2313 77.5021 43.4622 81.4018 46.0227C82.1798 46.276 82.7006 47.5578 82.961 49.3461L106.61 19.1545C109.989 15.828 112.59 14.2929 115.188 14.2929C131.04 11.7355 143.778 11.7355 153.654 14.2929C171.587 18.6448 184.582 25.8074 192.118 36.0432ZM369.367 73.9102C364.949 70.3273 355.073 65.9785 356.111 59.3255C356.111 63.1647 361.57 67.7699 373.006 72.6315C379.764 75.4453 384.181 78.5154 386.521 82.6109H384.181C384.441 78.7717 378.204 75.7016 369.367 73.9102ZM287.502 58.5596H278.143V60.6042C276.066 60.8606 274.246 60.351 272.427 59.0692L254.233 49.0928C259.95 49.8588 264.37 48.3237 268.006 44.9973L278.664 36.2996C282.821 32.7167 287.241 31.1817 292.179 31.1817C329.083 28.8775 354.295 30.1593 368.068 34.7645L359.233 56.5118C352.993 55.9991 354.295 61.117 352.993 63.4211C351.434 64.9562 349.357 64.4435 346.496 61.886L291.658 62.3957C289.578 61.6297 288.28 60.351 287.502 58.5596Z" fill="#F9BE2A" fill-opacity="0.31"/>
</svg>
