<svg width="32" height="32" viewBox="0 0 32 32" fill="none" xmlns="http://www.w3.org/2000/svg">
<g id="gg:google">
<path id="Vector" d="M7.99935 15.9998C7.99743 17.8884 8.66374 19.7168 9.88033 21.1614C11.0969 22.6059 12.7854 23.5735 14.6468 23.8928C16.5082 24.2121 18.4225 23.8626 20.051 22.9061C21.6795 21.9496 22.9171 20.4478 23.5447 18.6665H15.9993V13.3332H29.0727V18.6665H29.066C27.83 24.7518 22.45 29.3332 15.9993 29.3332C8.63535 29.3332 2.66602 23.3638 2.66602 15.9998C2.66602 8.63584 8.63535 2.66651 15.9993 2.66651C18.1787 2.66496 20.3252 3.19817 22.2504 4.21939C24.1757 5.24062 25.821 6.71864 27.042 8.52384L22.6713 11.5838C21.7226 10.1497 20.3369 9.05948 18.7198 8.47472C17.1027 7.88997 15.3403 7.84182 13.6937 8.33742C12.0471 8.83301 10.604 9.84598 9.57829 11.2262C8.55262 12.6063 7.99894 14.2803 7.99935 15.9998Z" fill="#F9BE2A"/>
</g>
</svg>
