<svg width="48" height="48" viewBox="0 0 48 48" fill="none" xmlns="http://www.w3.org/2000/svg">
<path d="M34.68 10.92C34.2053 10.92 33.7413 11.0608 33.3466 11.3245C32.952 11.5882 32.6443 11.963 32.4627 12.4016C32.281 12.8401 32.2335 13.3227 32.3261 13.7882C32.4187 14.2538 32.6473 14.6814 32.9829 15.0171C33.3186 15.3527 33.7462 15.5813 34.2118 15.6739C34.6773 15.7665 35.1599 15.719 35.5984 15.5373C36.037 15.3557 36.4118 15.048 36.6755 14.6534C36.9392 14.2587 37.08 13.7947 37.08 13.32C37.08 12.6835 36.8271 12.073 36.3771 11.6229C35.927 11.1729 35.3165 10.92 34.68 10.92ZM43.88 15.76C43.8407 14.1006 43.53 12.4589 42.96 10.9C42.4538 9.5651 41.662 8.35692 40.64 7.36C39.6496 6.33485 38.4391 5.54835 37.1 5.06C35.5453 4.47232 33.9017 4.15442 32.24 4.12C30.12 4 29.44 4 24 4C18.56 4 17.88 4 15.76 4.12C14.0983 4.15442 12.4547 4.47232 10.9 5.06C9.56396 5.55451 8.35473 6.34017 7.36 7.36C6.33485 8.35036 5.54835 9.56088 5.06 10.9C4.47232 12.4547 4.15442 14.0983 4.12 15.76C4 17.88 4 18.56 4 24C4 29.44 4 30.12 4.12 32.24C4.15442 33.9017 4.47232 35.5453 5.06 37.1C5.54835 38.4391 6.33485 39.6496 7.36 40.64C8.35473 41.6598 9.56396 42.4455 10.9 42.94C12.4547 43.5277 14.0983 43.8456 15.76 43.88C17.88 44 18.56 44 24 44C29.44 44 30.12 44 32.24 43.88C33.9017 43.8456 35.5453 43.5277 37.1 42.94C38.4391 42.4516 39.6496 41.6651 40.64 40.64C41.6645 39.6452 42.4567 38.4364 42.96 37.1C43.53 35.5411 43.8407 33.8994 43.88 32.24C43.88 30.12 44 29.44 44 24C44 18.56 44 17.88 43.88 15.76ZM40.28 32C40.2658 33.2696 40.0359 34.5275 39.6 35.72C39.2807 36.5904 38.7678 37.3768 38.1 38.02C37.4509 38.6805 36.6662 39.1923 35.8 39.52C34.6075 39.9559 33.3496 40.1858 32.08 40.2C30.08 40.3 29.34 40.32 24.08 40.32C18.82 40.32 18.08 40.32 16.08 40.2C14.7617 40.2259 13.4489 40.0229 12.2 39.6C11.3724 39.2547 10.6238 38.7443 10 38.1C9.33618 37.4575 8.82969 36.6704 8.52 35.8C8.03009 34.5908 7.7592 33.3041 7.72 32C7.72 30 7.6 29.26 7.6 24C7.6 18.74 7.6 18 7.72 16C7.72729 14.702 7.96428 13.4154 8.42 12.2C8.77209 11.3558 9.31253 10.6033 10 10C10.6058 9.31038 11.3573 8.7639 12.2 8.4C13.4188 7.95896 14.7039 7.72899 16 7.72C18 7.72 18.74 7.6 24 7.6C29.26 7.6 30 7.6 32 7.72C33.2696 7.73417 34.5275 7.96412 35.72 8.4C36.6289 8.7373 37.4446 9.28569 38.1 10C38.7534 10.616 39.2652 11.3667 39.6 12.2C40.0449 13.4178 40.275 14.7035 40.28 16C40.38 18 40.4 18.74 40.4 24C40.4 29.26 40.38 30 40.28 32ZM24 13.74C21.9716 13.744 19.9899 14.3491 18.3053 15.4788C16.6207 16.6086 15.3088 18.2124 14.5353 20.0875C13.7618 21.9626 13.5614 24.0249 13.9596 26.0139C14.3577 28.0028 15.3365 29.8291 16.7722 31.262C18.2078 32.6948 20.036 33.67 22.0257 34.0643C24.0154 34.4586 26.0773 34.2542 27.9509 33.4771C29.8245 32.6999 31.4258 31.3849 32.5523 29.6981C33.6788 28.0113 34.28 26.0284 34.28 24C34.2826 22.6502 34.0184 21.3132 33.5025 20.0659C32.9866 18.8186 32.2291 17.6856 31.2737 16.7321C30.3184 15.7786 29.1839 15.0234 27.9356 14.5099C26.6873 13.9964 25.3498 13.7347 24 13.74ZM24 30.66C22.6828 30.66 21.3951 30.2694 20.2999 29.5376C19.2047 28.8058 18.351 27.7656 17.847 26.5487C17.3429 25.3317 17.211 23.9926 17.468 22.7007C17.7249 21.4088 18.3593 20.2221 19.2907 19.2907C20.2221 18.3593 21.4088 17.7249 22.7007 17.468C23.9926 17.211 25.3317 17.3429 26.5487 17.847C27.7656 18.351 28.8058 19.2047 29.5376 20.2999C30.2694 21.3951 30.66 22.6828 30.66 24C30.66 24.8746 30.4877 25.7406 30.153 26.5487C29.8183 27.3567 29.3278 28.0909 28.7093 28.7093C28.0909 29.3278 27.3567 29.8183 26.5487 30.153C25.7406 30.4877 24.8746 30.66 24 30.66Z" fill="#252529"/>
</svg>
