<svg width="10" height="14" viewBox="0 0 10 14" fill="none" xmlns="http://www.w3.org/2000/svg">
<g id="Group">
<path id="Vector" d="M5.75 4.75C5.75 4.94891 5.67098 5.13968 5.53033 5.28033C5.38968 5.42098 5.19891 5.5 5 5.5C4.80109 5.5 4.61032 5.42098 4.46967 5.28033C4.32902 5.13968 4.25 4.94891 4.25 4.75C4.25 4.55109 4.32902 4.36032 4.46967 4.21967C4.61032 4.07902 4.80109 4 5 4C5.19891 4 5.38968 4.07902 5.53033 4.21967C5.67098 4.36032 5.75 4.55109 5.75 4.75Z" stroke="#E8E8E8" stroke-width="1.5" stroke-linejoin="round"/>
<path id="Vector_2" d="M9.125 5.125C9.125 7.4035 7.625 10 5 13C2.375 10 0.875 7.4035 0.875 5.125C0.875 4.03098 1.3096 2.98177 2.08318 2.20818C2.85677 1.4346 3.90598 1 5 1C6.09402 1 7.14323 1.4346 7.91682 2.20818C8.6904 2.98177 9.125 4.03098 9.125 5.125Z" stroke="#E8E8E8" stroke-width="1.5" stroke-linejoin="round"/>
</g>
</svg>
