<svg width="40" height="40" viewBox="0 0 40 40" fill="none" xmlns="http://www.w3.org/2000/svg">
<path d="M36.6668 12.5586V28.3336C36.6669 29.6089 36.1796 30.8361 35.3047 31.764C34.4298 32.6919 33.2333 33.2504 31.9602 33.3253L31.6668 33.3336H8.3335C7.05814 33.3337 5.83097 32.8464 4.90306 31.9715C3.97515 31.0965 3.41665 29.9001 3.34183 28.6269L3.3335 28.3336V12.5586L19.0752 23.0536L19.2685 23.1636C19.4963 23.2749 19.7466 23.3328 20.0002 23.3328C20.2537 23.3328 20.504 23.2749 20.7318 23.1636L20.9252 23.0536L36.6668 12.5586Z" fill="#252529"/>
<path d="M31.6669 6.66699C33.4669 6.66699 35.0452 7.61699 35.9252 9.04533L20.0002 19.662L4.0752 9.04533C4.49318 8.3667 5.06735 7.79783 5.74982 7.38614C6.43228 6.97446 7.20328 6.73189 7.99853 6.67866L8.33353 6.66699H31.6669Z" fill="black"/>
</svg>
