<svg width="40" height="40" viewBox="0 0 40 40" fill="none" xmlns="http://www.w3.org/2000/svg">
<path d="M21.6668 15.0007C21.6668 15.4427 21.4912 15.8666 21.1787 16.1792C20.8661 16.4917 20.4422 16.6673 20.0002 16.6673C19.5581 16.6673 19.1342 16.4917 18.8217 16.1792C18.5091 15.8666 18.3335 15.4427 18.3335 15.0007C18.3335 14.5586 18.5091 14.1347 18.8217 13.8221C19.1342 13.5096 19.5581 13.334 20.0002 13.334C20.4422 13.334 20.8661 13.5096 21.1787 13.8221C21.4912 14.1347 21.6668 14.5586 21.6668 15.0007Z" fill="#252529" stroke="black" stroke-width="3" stroke-linejoin="round"/>
<path d="M29.1668 15.8337C29.1668 20.897 25.8335 26.667 20.0002 33.3337C14.1668 26.667 10.8335 20.897 10.8335 15.8337C10.8335 13.4025 11.7993 11.0709 13.5183 9.35185C15.2374 7.63276 17.569 6.66699 20.0002 6.66699C22.4313 6.66699 24.7629 7.63276 26.482 9.35185C28.2011 11.0709 29.1668 13.4025 29.1668 15.8337Z" stroke="black" stroke-width="3" stroke-linejoin="round"/>
</svg>
