<svg width="40" height="40" viewBox="0 0 40 40" fill="none" xmlns="http://www.w3.org/2000/svg">
<path d="M12.9688 26.9732C17.8074 31.8111 23.7002 35.5446 28.5045 35.5446C30.6645 35.5446 32.556 34.791 34.0795 33.1168C34.9667 32.1289 35.5195 30.9739 35.5195 29.8361C35.5195 28.9989 35.201 28.1953 34.3981 27.6261L29.2745 23.9761C28.4881 23.4403 27.8352 23.1725 27.2324 23.1725C26.4624 23.1725 25.7924 23.6082 25.0224 24.3611L23.8338 25.5332C23.7507 25.6175 23.6517 25.6845 23.5426 25.7304C23.4336 25.7764 23.3165 25.8004 23.1981 25.8011C22.9302 25.8011 22.6952 25.7011 22.5117 25.6168C21.4902 25.0646 19.716 23.5411 18.0581 21.9003C16.4174 20.2596 14.8938 18.4853 14.3581 17.4475C14.2427 17.2427 14.1797 17.0125 14.1745 16.7775C14.1745 16.5603 14.241 16.3418 14.4252 16.1582L15.5967 14.9368C16.351 14.1661 16.786 13.4961 16.786 12.7261C16.786 12.1239 16.5181 11.4711 15.966 10.6839L12.366 5.61105C11.7802 4.80748 10.9602 4.45605 10.056 4.45605C8.95096 4.45605 7.79596 4.9582 6.82524 5.9132C5.20096 7.47034 4.48096 9.39463 4.48096 11.5203C4.48096 16.3253 8.14739 22.1518 12.9688 26.9732Z" fill="#252529"/>
</svg>
